<?xml version="1.0" standalone="no"?>
<!DOCTYPE svg PUBLIC "-//W3C//DTD SVG 20010904//EN"
 "http://www.w3.org/TR/2001/REC-SVG-20010904/DTD/svg10.dtd">
<svg version="1.0" xmlns="http://www.w3.org/2000/svg"
 width="1200.000000pt" height="1200.000000pt" viewBox="0 0 1200.000000 1200.000000"
 preserveAspectRatio="xMidYMid meet">

<g transform="translate(0.000000,1200.000000) scale(0.100000,-0.100000)"
fill="#000000" stroke="none">
<path d="M2010 11499 c-674 -56 -1254 -531 -1449 -1187 -16 -54 -38 -148 -48
-208 -17 -105 -18 -273 -18 -4104 0 -3831 1 -3999 18 -4104 59 -348 208 -644
451 -895 290 -298 646 -466 1063 -501 161 -13 7785 -13 7946 0 390 32 739 189
1014 454 306 293 473 640 513 1061 14 153 14 7817 0 7970 -40 415 -207 765
-501 1051 -148 142 -268 226 -444 310 -181 86 -372 137 -582 154 -143 12
-7821 11 -7963 -1z m2717 -2688 c781 -106 1320 -434 1769 -1076 107 -155 187
-292 298 -515 126 -254 168 -356 407 -989 290 -766 372 -967 524 -1276 225
-456 479 -749 779 -896 56 -27 137 -58 181 -70 114 -30 293 -36 410 -15 359
68 635 264 748 532 52 122 61 178 62 354 0 147 -3 172 -22 224 -35 92 -82 163
-159 241 -180 182 -464 317 -968 459 -352 100 -590 208 -781 355 -309 237
-510 574 -612 1029 -33 147 -37 356 -9 492 126 621 600 1073 1223 1166 133 20
505 14 648 -10 324 -55 595 -210 767 -438 98 -130 249 -340 246 -343 -2 -1
-147 -112 -323 -245 -176 -134 -325 -247 -331 -252 -8 -6 -32 25 -75 98 -48
80 -87 130 -153 196 -141 140 -201 159 -506 161 -165 1 -180 -1 -256 -26 -101
-34 -183 -86 -255 -164 -70 -76 -101 -129 -135 -229 -23 -68 -26 -90 -21 -159
10 -147 88 -359 175 -475 125 -166 293 -249 776 -385 610 -171 1068 -447 1338
-805 172 -229 268 -498 284 -795 29 -535 -190 -1054 -581 -1383 -293 -246
-647 -397 -1047 -447 -154 -19 -252 -19 -405 0 -592 73 -1097 412 -1499 1005
-238 351 -410 730 -811 1795 -256 681 -325 841 -456 1076 -277 495 -568 762
-972 892 -238 77 -614 120 -840 97 -374 -38 -706 -174 -995 -407 -98 -79 -279
-267 -356 -369 -219 -291 -368 -640 -419 -979 -70 -465 122 -1136 450 -1569
139 -184 274 -313 450 -431 241 -161 513 -253 818 -274 155 -10 478 2 612 24
366 59 632 188 844 411 160 167 375 454 447 596 14 28 29 47 34 42 4 -5 103
-180 219 -389 150 -271 209 -386 205 -400 -11 -36 -95 -178 -157 -265 -209
-294 -531 -536 -907 -683 -303 -118 -606 -173 -1015 -184 -346 -9 -585 17
-860 93 -1047 289 -1808 1251 -1981 2504 -24 169 -24 465 0 620 83 548 301
1040 659 1487 98 123 331 350 465 453 400 309 828 487 1328 555 155 20 538 13
741 -14z"/>
</g>
</svg>
